<svg width="32" height="32" xmlns="http://www.w3.org/2000/svg">
  <path d="m11.312,12.766c0.194,0.195 0.449,0.292 0.704,0.292c0.255,0 0.51,-0.097 0.704,-0.292c0.389,-0.389 0.389,-1.02 0,-1.409l-7.965,-7.973c-0.389,-0.389 -1.019,-0.389 -1.408,0s-0.389,1.02 0,1.409l7.965,7.973z"/>
  <path d="m17.407,16.048l11.245,-11.255c0.389,-0.389 0.389,-1.02 0,-1.409c-0.389,-0.389 -1.019,-0.561 -1.408,-0.171l-11.948,11.787l-12.096,12.303c-0.389,0.389 -0.315,1.02 0.073,1.409c0.194,0.195 0.486,0.292 0.741,0.292s0.528,-0.097 0.722,-0.292l11.254,-11.254l11.249,11.255c0.194,0.195 0.452,0.292 0.706,0.292s0.511,-0.097 0.705,-0.292c0.389,-0.389 0.39,-1.02 0.001,-1.409l-11.244,-11.256z"/>
</svg>
