<svg width="128" height="128" xmlns="http://www.w3.org/2000/svg">
  <circle fill="#ffffff" r="58" cy="64" cx="64"/>
  <line stroke-linejoin="round" stroke="#00adfe" stroke-width="4px" stroke-linecap="round" fill="none" y2="52" y1="52" x2="108" x1="85"/>
  <line stroke-linejoin="round" stroke="#00adfe" stroke-width="4px" stroke-linecap="round" fill="none" y2="52" y1="52" x2="43" x1="20"/>
  <path stroke="#000000" stroke-opacity="0" fill="#101010" d="m53,107a71.65,71.65 0 0 1 -36.75,-10.09a58,58 0 0 0 105.31,-39.91a72,72 0 0 1 -68.56,50z"/>
  <path fill="#00adfe" d="m86,117.67a58.12,58.12 0 0 0 22,-15.9l0,-52.77l-22,0l0,68.67z"/>
  <path opacity="0.4" fill="#356cb6" d="m108,101.77l0,-20.32a72.28,72.28 0 0 1 -22,17.55l0,18.67a57.74,57.74 0 0 0 9.05,-4.67l0.21,-0.14q1.37,-0.86 2.74,-1.86l0,0a58.38,58.38 0 0 0 10,-9.23z"/>
  <path stroke-miterlimit="10" stroke="#393c54" stroke-width="4px" stroke-linecap="round" fill="none" d="m79,41l0,0a8,8 0 0 0 8,8l21,0"/>
  <path fill="#00adfe" d="m20,101.77a58.12,58.12 0 0 0 22,15.9l0,-68.67l-22,0l0,52.77z"/>
  <path opacity="0.4" fill="#356cb6" d="m42,106.15a71.51,71.51 0 0 1 -22,-7.15l0,2.78l0,0q1.1,1.28 2.26,2.48l0,0q1.17,1.21 2.41,2.36l0,0q1.24,1.15 2.55,2.22l0,0q1.42,1.16 2.78,2.16l0,0a57.83,57.83 0 0 0 12,6.68l0,-11.53z"/>
  <path stroke-miterlimit="10" stroke="#393c54" stroke-width="4px" stroke-linecap="round" fill="none" d="m49,41l0,0a8,8 0 0 1 -8,8l-21,0"/>
  <path fill="#393c54" d="m48.89,72a1.9,1.9 0 0 1 -1.89,-2.16a17.12,17.12 0 0 1 34,0a1.9,1.9 0 0 1 -1.89,2.16l-30.22,0z"/>
  <path fill="#f85565" d="m75.5,72a12.13,12.13 0 0 0 -23,0l23,0z"/>
  <line stroke="#393c54" stroke-linejoin="round" stroke-width="4px" stroke-linecap="round" fill="none" y2="78" y1="78" x2="70" x1="58"/>
</svg>
