<svg width="256" height="256" xmlns="http://www.w3.org/2000/svg">
  <g transform="matrix(2.373782880275747,0,0,2.373782880275747,-0.7341438107685648,-0.733386506882508)">
   <path d="m0.630783,101.41342c0.34824,-0.77721 21.5181,-48.10156 26.09896,-58.34162c-1.18096,6.14202 5.93005,17.25351 13.66856,24.9937c9.40565,9.40565 19.96199,14.92186 25.42941,13.51547c-9.47799,4.24272 -58.04385,25.92568 -58.77733,26.25205c-1.34246,0.6174 -3.36793,-0.0286 -4.87189,-1.5477c-1.51911,-1.50397 -2.1651,-3.52944 -1.54771,-4.8719z" fill="#F0F1F1"/>
   <path d="m0.630783,101.41342c0.34824,-0.77721 21.5181,-48.10156 26.09896,-58.34162c-1.17928,6.13697 5.9166,17.23332 13.64669,24.97183l-38.21982,38.21645c-1.50228,-1.49891 -2.13986,-3.51093 -1.52583,-4.84666z" fill="#FFFFFF"/>
   <circle cx="39.09117" cy="23.949274" r="3.364568" fill="#DF2C2C"/>
   <circle cx="66.007719" cy="30.678411" r="3.364568" fill="#F37A10"/>
   <circle cx="97.971121" cy="44.136686" r="3.364568" fill="#059BBF"/>
   <circle cx="99.653405" cy="81.146941" r="3.364568" fill="#FA5655"/>
   <circle cx="60.960866" cy="7.126431" r="3.364568" fill="#12B2A0"/>
   <polygon points="84.30591583251953,6.5409975200891495 77.65753173828125,9.929117694497108 72.38021087646484,4.651789680123329 73.54771423339844,12.023559108376503 66.89764404296875,15.411678805947304 74.26941680908203,16.579185023903847 75.43692016601562,23.949273601174355 78.82504272460938,17.2992053180933 86.19512176513672,18.46671248972416 80.91779327392578,13.191065326333046 " fill="#FA5655"/>
   <polygon points="82.88943481445312,62.641812816262245 81.28621673583984,67.57426215708256 76.1014175415039,67.57426215708256 80.29704284667969,70.36012031137943 78.6938247680664,75.16136695444584 82.88943481445312,72.04746009409428 87.08505249023438,75.06210853159428 85.4818344116211,70.37695075571537 89.67745208740234,67.57426215708256 84.4926528930664,67.57426215708256 " fill="#F37A10"/>
   <path d="m71.054573,45.81897c16.75723,0 20.27994,-10.65391 23.10954,-19.21337c2.35688,-7.12279 4.21749,-12.75003 12.21843,-12.75003c0.92862,0 1.68228,-0.75366 1.68228,-1.68229s-0.75366,-1.68228 -1.68228,-1.68228c-10.43185,0 -12.96368,7.65608 -15.41141,15.05813c-2.87502,8.69404 -5.59023,16.90527 -19.91656,16.90527c-0.92862,0 -1.68229,0.75367 -1.68229,1.68229s0.75367,1.68228 1.68229,1.68228z" fill="#DF2C2C"/>
   <path d="m48.554023,35.35684c11.78944,-9.43256 7.60224,-15.74618 3.55298,-21.85455c-2.26436,-3.41336 -4.60441,-6.94279 -4.60441,-11.42271c0,-0.92862 -0.75366,-1.68229 -1.68229,-1.68229s-1.68228,0.75367 -1.68228,1.68229c0,5.49434 2.74381,9.63108 5.16461,13.28331c3.93655,5.9351 6.53736,9.85819 -2.85147,17.36791c-0.72506,0.58038 -0.84282,1.63854 -0.26244,2.36529c0.58544,0.72843 1.6436,0.83778 2.3653,0.26075z" fill="#059BBF"/>
   <path d="m106.382543,66.00638c0.92862,0 1.68228,-0.75366 1.68228,-1.68228s-0.75366,-1.68229 -1.68228,-1.68229c-4.80797,0 -8.64526,-2.55875 -12.35638,-5.03339c-5.9923,-3.99543 -12.18983,-8.1288 -20.7964,0.47945c-0.65777,0.65609 -0.65777,1.72266 0,2.37875c0.65609,0.65777 1.72266,0.65777 2.37875,0c6.6568,-6.65512 10.59166,-4.03075 16.55031,-0.05888c3.93655,2.62436 8.39629,5.59864 14.22372,5.59864z" fill="#12B2A0"/>
   <path d="m27.686963,98.56195c-15.33738,6.9125 3.12905,-1.37275 -12.22348,5.5078c-3.73803,-3.87767 -7.27756,-8.03459 -10.46717,-12.41526c1.78659,-3.99374 3.96346,-8.86227 6.25137,-13.97474c4.41599,7.79066 10.03146,14.87813 16.43928,20.8822z" fill="#DF2C2C"/>
   <path d="m19.127503,89.2892l-8.94302,8.9447c-1.80846,-2.12977 -3.54626,-4.32347 -5.18817,-6.58109c1.78659,-3.99375 3.96346,-8.86228 6.25137,-13.97474c2.31482,4.08459 4.9661,7.96898 7.87982,11.61113z" fill="#FA5655"/>
   <path d="m40.398303,68.06382c10.9012,10.89952 23.36525,16.60078 27.63657,12.32273c4.23767,-4.23767 -1.29031,-16.60583 -12.3261,-27.65675c-11.05092,-11.03579 -23.41571,-16.54527 -27.65507,-12.3261c-4.93414,4.92909 3.29559,18.61111 12.3446,27.66012z" fill="#E2E4E5"/>
   <path d="m37.950583,73.67423c-6.01249,-8.1372 -9.65127,-16.732 -10.42007,-24.40994c-0.81927,-2.33838 -1.13386,-4.45637 -0.80245,-6.18912l-9.4393,21.13453c2.36529,5.1091 5.42873,10.24343 9.10116,15.21627c3.82215,5.17134 8.12543,9.91201 12.70966,14.08913l12.78872,-5.71304c-5.0704,-3.78682 -9.87669,-8.60825 -13.93772,-14.12783z" fill="#DF2C2C"/>
   <path d="m55.697003,52.7197l-15.32057,15.32056c-9.04059,-9.049 -17.25182,-22.71252 -12.32441,-27.63656c4.23935,-4.21581 16.59741,1.28863 27.64498,12.316z" fill="#F0F1F1"/>
   <path d="m26.728063,43.07517l-9.4393,21.13453c2.36529,5.1091 5.42873,10.24343 9.10116,15.21627c0.36842,0.49795 0.76207,0.97236 1.13891,1.46358l9.1062,-9.1062c-5.21845,-7.57533 -8.40133,-15.44337 -9.11125,-22.5342c-0.81423,-2.33333 -1.12713,-4.44628 -0.79572,-6.17398z" fill="#FA5655"/>
  </g>
</svg>
